<svg xmlns="http://www.w3.org/2000/svg" viewBox="0 0 64 64">
  <circle cx="32" cy="32" r="30" fill="#ffffff" stroke="#d1d5db" stroke-width="1.5"/>
  <path d="M 12 18 Q 32 32 12 46" fill="none" stroke="#c8102e" stroke-width="2.5" stroke-linecap="round"/>
  <path d="M 52 18 Q 32 32 52 46" fill="none" stroke="#c8102e" stroke-width="2.5" stroke-linecap="round"/>
  <g stroke="#c8102e" stroke-width="1.8" stroke-linecap="round">
    <line x1="15" y1="20" x2="20" y2="18"/>
    <line x1="15" y1="20" x2="18" y2="24"/>
    <line x1="18" y1="27" x2="23" y2="25"/>
    <line x1="18" y1="27" x2="21" y2="31"/>
    <line x1="20" y1="35" x2="25" y2="33"/>
    <line x1="20" y1="35" x2="23" y2="39"/>
    <line x1="18" y1="42" x2="23" y2="40"/>
    <line x1="18" y1="42" x2="21" y2="46"/>
    <line x1="15" y1="49" x2="20" y2="47"/>
    <line x1="15" y1="49" x2="18" y2="45"/>
  </g>
  <g stroke="#c8102e" stroke-width="1.8" stroke-linecap="round">
    <line x1="49" y1="20" x2="44" y2="18"/>
    <line x1="49" y1="20" x2="46" y2="24"/>
    <line x1="46" y1="27" x2="41" y2="25"/>
    <line x1="46" y1="27" x2="43" y2="31"/>
    <line x1="44" y1="35" x2="39" y2="33"/>
    <line x1="44" y1="35" x2="41" y2="39"/>
    <line x1="46" y1="42" x2="41" y2="40"/>
    <line x1="46" y1="42" x2="43" y2="46"/>
    <line x1="49" y1="49" x2="44" y2="47"/>
    <line x1="49" y1="49" x2="46" y2="45"/>
  </g>
</svg>
